<svg xmlns="http://www.w3.org/2000/svg" width="1024" height="1024" xmlns:v="https://vecta.io/nano"><path d="M429.063 124.75l2.084-.062c10.965-.08 20.706 3.858 30.541 8.313 13.084 5.759 26.349 10.987 39.688 16.125l3.175 1.224 12.88 4.96 30.026 11.696 63.495 24.663 19.654 7.586 85.908 33.099 19.346 7.457 12.837 4.95 5.99 2.317c22.252 9.288 22.252 9.288 45.759 13.1l3.766.072 7.758.094c10.545.234 19.584 1.705 27.594 9.033 9.712 8.795 20.55 12.703 32.75 16.75l6.92 2.323 4.274 1.423c4.167 1.418 7.338 3.037 10.494 6.129.496 3.041.755 4.943-1.082 7.515-2.758 2.135-5.836 3.094-9.105 4.184l-2.118.727-4.428 1.5-6.774 2.31-4.305 1.463-2.046.701c-2.849.951-5.116 1.6-8.142 1.6l-.075 34.502-.031 16.021v15.464l-.031 5.897c-.624 10.412-.624 10.412 3.139 19.606 2.295 1.527 4.441 2.514 6.998 3.51 6.369 6.932 8.498 14.9 8.32 24.164a31.43 31.43 0 0 1-5.687 14.746c-1.458 2.133-2.223 3.523-2.633 6.09 1.1 3.587 2.645 6.874 4.27 10.242 4.197 8.785 5.837 18.588 7.418 28.133l.362 2.137c2.075 13.533 2.137 27.366 2.136 41.029l.039 7.258c.084 22.921.084 22.921-6.225 31.201-8.445 7.496-17.467 8.336-28.312 8.25l-2.936.023c-9.677-.026-20.3-.363-27.752-7.273-9.42-11.727-7.364-29.119-7.312-43.25l.006-3.111c.072-24.16 1.696-47.615 10.994-70.201 1.197-3.389 1.572-4.749.293-8.141-1.554-2.526-3.244-4.895-4.98-7.297-3.568-8.92-2.765-17.792.805-26.555 3.08-6.3 7.187-9.128 13.195-12.445l.052-26.914.024-12.5.019-12.08.011-4.591c.026-7.702-.024-15.275-1.106-22.915l-6.169 2.183-5.611 1.985-15.899 5.637-30.167 10.608-12.385 4.309-5.895 2.031-8.229 2.856-2.443.819c-4.768 1.695-8.018 3.447-11.201 7.572-.709 2.298-.709 2.298-.559 4.742l.016 2.913.105 3.22.066 3.427.223 7.942.271 10.48.41 15.723.159 6.324.286 9.018.039 2.715c.32 6.912 2.743 11.122 6.985 16.496l2.352 3.055 2.273 2.82c30.632 39.209 44.667 89.037 51.063 137.664l.452 3.429 2.186 17.191c2.16 17.212 5.063 34.093 12.674 49.841l1.332 2.785c3.671 7.19 8.365 13.158 13.668 19.215l2.332 2.668c3.974 4.475 8.044 8.805 12.355 12.957 2.782 2.914 2.397 5.505 2.313 9.375-32.782 11.82-70.638 4.363-102-8l-.272 1.93C733.5 732.368 726.322 760.752 712 787l-.952 1.777c-3.847 7.156-8.097 13.956-12.673 20.66l-1.343 1.971C688.665 823.445 688.665 823.445 684 825c-4.822-1.772-6.348-4.956-8.462-9.334l-1.19-2.576-1.281-2.673-4.005-8.479-5.277-11.098-1.272-2.665C658.324 777.703 658.324 777.703 651 770l-1.035 1.889C635.003 799.092 615.543 830.872 588 847c-2.605.555-2.605.555-5 0-3.117-3.383-4.873-6.625-6.48-10.91l-1.326-3.473-1.381-3.679-2.914-7.562-.735-1.899c-2.243-5.756-4.678-11.412-7.226-17.039l-1.12-2.483c-1.458-3.183-2.868-6.03-4.818-8.955l-2.457 3.078c-6.9 8.598-13.925 16.945-21.543 24.922l-1.432 1.515c-7.29 7.677-14.972 14.314-23.568 20.485l-3.137 2.316C485.028 857.52 461.446 867.75 439 877l-2.318.962c-6.786 2.774-11.348 4.551-18.682 3.038l-2-1c-.576-2.713-.576-2.713-1.023-6.379l-.248-2.011c-1.01-8.494-1.678-17.022-2.354-25.548l-.406-4.998L411 829l-3.019 1.55C384.118 842.693 353.084 853.686 326 853l-2-1c-.236-5.74.384-10.374 2.313-15.812l.772-2.257c3.045-8.669 6.59-17.151 10.131-25.627 2.242-5.385 4.374-10.638 5.784-16.303l-3.715.473C312.986 795.55 287.041 793.739 262 785c-1.592-5.848-1.592-5.848-.103-8.745 1.409-1.807 2.898-3.469 4.478-5.13l1.667-1.844c3.853-4.225 7.864-8.293 11.954-12.289 3.192-3.173 6.088-6.568 9.004-9.992l2.457-2.793c26.193-29.995 47.479-67.157 45.691-108.078-.642-9.239-3.167-17.925-9.148-25.129-8.768-7.42-19.041-7.882-30-7-5.85 1.474-10.261 4.222-14 9-8.138 14.01-6.709 27.306-3.423 42.627 2.452 11.579 2.452 11.579.548 16.748C280 674 280 674 278 675c-18.153.313-38.674-16.569-51.37-28.417-20.284-19.694-34.248-48.552-34.865-76.888C191.544 538.165 204.88 514.363 226 492l2.258-2.453C244.238 472.775 268.105 457.579 291 453l-1-3c-.285-3.411-.278-6.828-.312-10.25l-.088-2.758c-.051-5.661.693-10.483 2.279-15.922 2.476-8.652 3.353-17.267 4.132-26.212l.763-8.167c.791-8.432 1.402-16.854 1.523-25.324l.056-2.134c.002-2.729-.017-4.722-1.542-7.039-2.283-1.505-4.567-2.587-7.084-3.663l-3.367-1.45-3.735-1.581-3.965-1.698L265 338l-5.18-2.193-25.422-10.734-24.91-10.542-2.549-1.085-9.957-4.243-27.303-11.457-5.025-2.069-9.452-3.857-4.246-1.745-1.923-.768c-3.869-1.604-6.999-3.405-10.034-6.306-.75-3.375-.75-3.375 0-7 5.969-6.865 15.078-10.739 23-15l3.024-1.63 19.446-10.417 12.366-6.621 40.744-21.684 28.57-15.383L286.5 194.5l25.699-13.699L337 167.5l26.875-14.437 26.751-14.398 4.576-2.433 6.451-3.423 1.932-1.031c8.614-4.545 15.671-6.957 25.478-7.028z" fill="#136d43"/><path d="M562 373l4.445.996C583.72 378.053 601.144 382.964 617 391l5.25 2.43c25.227 11.659 47.479 26.561 68.154 45.142l4.393 3.854c23.902 20.896 44.073 51.007 53.219 81.57.866 2.641 1.852 5.155 2.91 7.723 10.424 25.802 13.567 54.387 16.932 81.787 2.486 20.125 6.255 38.835 13.424 57.846 1.692 4.511 3.228 9.067 4.719 13.648-6.42.344-11.249-.718-17.25-2.937l-2.623-.95C745.413 673.452 726.421 663.129 708 651l.219 3.426c1.779 29.858 2.669 60.951-7.219 89.574l-.944 2.776C693.66 765.414 693.66 765.414 689 773c-3-1-3-1-4.875-4.254L682 764.438c-9.234-18.068-24.058-42.332-43-51.437l-.579 2.288-2.671 10.462-.91 3.598c-2.714 10.568-5.592 20.944-10.652 30.652l-1.047 2.044C615.596 776.63 606.509 789.424 596 802c-2.742-.998-3.796-1.585-5.106-4.249l-.867-2.825-1.02-3.179-1.07-3.434C581.379 768.414 573.108 745.459 556 732h-2l-.891 2.691c-15.604 45.199-49.925 82.22-92.348 103.969-12.636 5.865-12.636 5.865-18.762 5.34-2.838-2.838-1.754-10.397-2-14.375l-.131-2.046c-1.07-16.844-1.497-33.707-1.869-50.579-4.955 2.652-9.077 5.6-13.25 9.375-5.631 4.952-11.467 9.547-17.5 14l-2.325 1.728C393.31 810.597 381.893 818.163 367 817c.28-6.456 1.508-11.758 3.852-17.758 1.348-3.805 2.306-7.639 3.273-11.555 2.273-9.06 5.156-17.9 8.125-26.75l.686-2.049C386.77 747.46 386.77 747.46 388 745l-3.531 1.688C362.606 756.94 337.632 767.567 313 766c2.831-7.621 7.897-13.933 12.693-20.428 9.522-12.914 17.463-26.231 24.401-40.689l2.598-5.289c3.72-7.682 6.258-15.317 8.309-23.594l.556-2.036c7.206-26.527 4.655-51.06-8.556-74.964l-2-3c.375-2.187.375-2.187 1-4a46.08 46.08 0 0 1 9.992-1.161l2.938-.029 3.159-.013 3.318-.017 6.978-.02 10.441-.072c29.733-.141 69.563 3.239 95.174 20.313-1.144-7.521-5.776-11.752-11-17l-2.219-2.324C463.543 584.574 455.034 580.36 446 576l-2.883-1.465c-9.84-4.597-20.762-6.53-31.304-8.898l-6.665-1.579c-26.991-6.396-57.959-8.39-85.148-2.059l-4 .809c-21.632 4.594-42.868 15.39-55.187 34.254-5.68 9.66-9.231 20.07-11.812 30.938-8.339-3.516-12.745-12.94-16.812-20.562l-1.13-2.108c-2.24-4.333-3.944-8.662-5.409-13.313-.664-2.155-.664-2.155-1.766-4.72-5.568-14.488-4.442-33.8 1.641-47.805 13.534-28.236 40.869-49.456 69.844-60.195 3.512-1.212 7.063-2.271 10.633-3.297 7.186-2.249 14.078-5.037 21-8-.516-4.39-1.502-7.263-3.937-10.937-4.76-7.681-6.305-15.068-5.062-24.062 4.162-11.733 14.302-22.46 24-30l1.501-1.197c26.231-20.794 56.771-29.625 89.312-35.053l2.923-.495c41.416-6.521 85.703-2.783 126.264 6.745z" fill="#fdfefd"/><path d="M432.492 278.867l3.48-.003 7.235.005 10.953-.006c29.474-.012 29.474-.012 41.355 2.61 3.773.799 7.58 1.342 11.391 1.921 26.727 4.067 26.727 4.067 39.074 8.845 2 .753 4.01 1.427 6.047 2.077l1.959.627 3.984 1.25c1.695.547 3.365 1.171 5.029 1.807l1 2c-8.09.348-15.656-.578-23.617-1.966C513.345 293.37 486.444 291.24 459 292l-2.46.063C422.659 293.097 373.776 300.561 348 325c-1.273 3.818-1.325 7.522-1.5 11.508l-.123 2.546-.377 8.072-.377 8.007-.23 4.979c-.188 3.941-.44 7.873-.803 11.802l-.199 2.182c-.893 4.358-4.36 6.217-7.84 8.537C329.594 387 329.594 387 326 387c-.193-18.343-.333-36.681.75-55l.187-3.731c.578-8.513 2.405-12.896 8.653-18.765 4.62-3.886 9.654-6.746 14.973-9.566l2.951-1.579c24.714-13.03 51.081-19.544 78.979-19.492z" fill="#f8fbf9"/><path d="M243 477l1 3-1.906 1.504C236.599 485.865 231.23 490.325 226 495l-2-1c12.485-12.854 12.485-12.854 19-17z" fill="#0b673d"/><path d="M274 763l2 2h-2v2l-5 5c-3.219 3.149-4.935 5.194-5.312 9.875L264 785h-2c-1.656-5.803-1.656-5.803.026-8.874 1.537-1.926 3.149-3.718 4.849-5.501l1.723-1.902c1.766-1.942 3.546-3.866 5.402-5.723z" fill="#05663b"/><path d="M481 604h2l1 7-5-2 2-5z" fill="#36805f"/><path d="M892 295l2 1c.369 5.538.369 5.538-1.5 7.875L891 305l-2-1 3-9z" fill="#066c39"/><path d="M146 270l2 1-3.375 3.5-1.898 1.969C141 278 141 278 139 278c1.491-3.795 3.757-5.61 7-8z" fill="#09643b"/></svg>